<?xml version="1.0" encoding="UTF-8"?>
<svg width="35px" height="38px" viewBox="0 0 35 38" version="1.1" xmlns="http://www.w3.org/2000/svg" xmlns:xlink="http://www.w3.org/1999/xlink">
    <title>Chart-10</title>
    <g id="Symbols" stroke="none" stroke-width="1" fill="none" fill-rule="evenodd">
        <g id="Menu" transform="translate(-30.000000, -135.000000)" fill="#C5C5C5">
            <g id="Chart-10" transform="translate(30.000000, 135.000000)">
                <path d="M33.4425,5.6 C33.3327278,5.60301385 33.2238493,5.62066982 33.11875,5.6525 C33.0106728,5.62060831 32.8988954,5.60295924 32.78625,5.6 L26.88,5.6 C26.1551263,5.6 25.5675,6.18762627 25.5675,6.9125 C25.5675,7.63737373 26.1551263,8.225 26.88,8.225 L29.7325,8.225 L20.65,17.78875 L16.87875,12.7925 C16.6501173,12.4909757 16.3024717,12.3028005 15.925,12.27625 C15.5431136,12.2433528 15.1668245,12.3848632 14.90125,12.66125 L5.88,21.72625 L5.88,2.1 C5.88,1.37512627 5.29237373,0.7875 4.5675,0.7875 C3.84262627,0.7875 3.255,1.37512627 3.255,2.1 L3.255,3.85 L1.505,3.85 C0.780126266,3.85 0.1925,4.43762627 0.1925,5.1625 C0.1925,5.88737373 0.780126266,6.475 1.505,6.475 L3.255,6.475 L3.255,9.975 L1.505,9.975 C0.780126266,9.975 0.1925,10.5626263 0.1925,11.2875 C0.1925,12.0123737 0.780126266,12.6 1.505,12.6 L3.255,12.6 L3.255,16.1 L1.505,16.1 C0.780126266,16.1 0.1925,16.6876263 0.1925,17.4125 C0.1925,18.1373737 0.780126266,18.725 1.505,18.725 L3.255,18.725 L3.255,22.225 L1.505,22.225 C0.780126266,22.225 0.1925,22.8126263 0.1925,23.5375 C0.1925,24.2623737 0.780126266,24.85 1.505,24.85 L3.255,24.85 L3.255,28.35 L1.505,28.35 C0.780126266,28.35 0.1925,28.9376263 0.1925,29.6625 C0.1925,30.3873737 0.780126266,30.975 1.505,30.975 L3.255,30.975 L3.255,33.1625 C3.255,33.8873737 3.84262627,34.475 4.5675,34.475 L6.755,34.475 L6.755,36.225 C6.755,36.9498737 7.34262627,37.5375 8.0675,37.5375 C8.79237373,37.5375 9.38,36.9498737 9.38,36.225 L9.38,34.475 L12.88,34.475 L12.88,36.225 C12.88,36.9498737 13.4676263,37.5375 14.1925,37.5375 C14.9173737,37.5375 15.505,36.9498737 15.505,36.225 L15.505,34.475 L19.005,34.475 L19.005,36.225 C19.005,36.9498737 19.5926263,37.5375 20.3175,37.5375 C21.0423737,37.5375 21.63,36.9498737 21.63,36.225 L21.63,34.475 L25.13,34.475 L25.13,36.225 C25.13,36.9498737 25.7176263,37.5375 26.4425,37.5375 C27.1673737,37.5375 27.755,36.9498737 27.755,36.225 L27.755,34.475 L31.255,34.475 L31.255,36.225 C31.255,36.9498737 31.8426263,37.5375 32.5675,37.5375 C33.2923737,37.5375 33.88,36.9498737 33.88,36.225 L33.88,34.13375 C34.2901842,33.773925 34.4329079,33.1967289 34.2376881,32.6872052 C34.0424683,32.1776815 33.5506047,31.8436223 33.005,31.85 L5.88,31.85 L5.88,25.3575 C5.97802846,25.3083163 6.06921581,25.2465443 6.15125,25.17375 L15.6975,15.54875 L19.48625,20.57125 C19.7188012,20.8772342 20.0737806,21.065917 20.4575,21.0875 C20.8416079,21.1016785 21.2136929,20.9522085 21.48125,20.67625 L32.12125,9.4675 L32.12125,12.48625 C32.12125,13.2111237 32.7088763,13.79875 33.43375,13.79875 C34.1586237,13.79875 34.74625,13.2111237 34.74625,12.48625 L34.74625,6.9475 C34.7466335,6.22005226 34.1695643,5.62361834 33.4425,5.6 L33.4425,5.6 Z" id="Shape"></path>
            </g>
        </g>
    </g>
</svg>