<?xml version="1.0" encoding="UTF-8"?>
<svg width="35px" height="35px" viewBox="0 0 35 35" version="1.1" xmlns="http://www.w3.org/2000/svg" xmlns:xlink="http://www.w3.org/1999/xlink">
    <title>Settings-2</title>
    <g id="Symbols" stroke="none" stroke-width="1" fill="none" fill-rule="evenodd">
        <g id="Menu" transform="translate(-30.000000, -586.000000)" fill="#C5C5C5">
            <g id="Settings-2" transform="translate(30.000000, 586.000000)">
                <path d="M17.1266667,10.8888889 C13.6902282,10.8888889 10.9044444,13.6746727 10.9044444,17.1111111 C10.9044444,20.5475496 13.6902282,23.3333333 17.1266667,23.3333333 C20.5631051,23.3333333 23.3488889,20.5475496 23.3488889,17.1111111 C23.3488889,13.6746727 20.5631051,10.8888889 17.1266667,10.8888889 Z M17.1266667,21 C14.9788926,21 13.2377778,19.2588851 13.2377778,17.1111111 C13.2377778,14.9633371 14.9788926,13.2222222 17.1266667,13.2222222 C19.2744407,13.2222222 21.0155556,14.9633371 21.0155556,17.1111111 C21.0155556,19.2588851 19.2744407,21 17.1266667,21 L17.1266667,21 Z" id="Shape"></path>
                <path d="M31.9044444,12.4444444 L29.4933333,12.4444444 C29.3948148,12.18 29.2859259,11.9207407 29.1666667,11.6666667 L30.87,9.96333333 C31.779855,9.05234541 31.779855,7.57654348 30.87,6.66555556 L27.5722222,3.36777778 C26.6612343,2.45792282 25.1854324,2.45792282 24.2744444,3.36777778 L22.5711111,5.07111111 C22.317037,4.95703704 22.0577778,4.84814815 21.7933333,4.74444444 L21.7933333,2.33333333 C21.7933333,1.04466892 20.7486644,0 19.46,0 L14.7933333,0 C13.5046689,0 12.46,1.04466892 12.46,2.33333333 L12.46,4.74444444 C12.1955556,4.84296296 11.9362963,4.95185185 11.6822222,5.07111111 L9.97888889,3.36777778 C9.06790097,2.45792282 7.59209903,2.45792282 6.68111111,3.36777778 L3.38333333,6.66555556 C2.47347838,7.57654348 2.47347838,9.05234541 3.38333333,9.96333333 L5.07111111,11.6666667 C4.95703704,11.9207407 4.84814815,12.18 4.74444444,12.4444444 L2.33333333,12.4444444 C1.04466892,12.4444444 0,13.4891134 0,14.7777778 L0,19.4444444 C0,20.7331089 1.04466892,21.7777778 2.33333333,21.7777778 L4.74444444,21.7777778 C4.84296296,22.0422222 4.95185185,22.3014815 5.07111111,22.5555556 L3.36777778,24.2588889 C2.45792282,25.1698768 2.45792282,26.6456787 3.36777778,27.5566667 L6.66555556,30.8544444 C7.57654348,31.7642994 9.05234541,31.7642994 9.96333333,30.8544444 L11.6666667,29.1511111 C11.9207407,29.2651852 12.18,29.3740741 12.4444444,29.4777778 L12.4444444,31.8888889 C12.4444444,33.1775533 13.4891134,34.2222222 14.7777778,34.2222222 L19.4444444,34.2222222 C20.7331089,34.2222222 21.7777778,33.1775533 21.7777778,31.8888889 L21.7777778,29.4777778 C22.0422222,29.3792593 22.3014815,29.2703704 22.5555556,29.1511111 L24.2588889,30.8544444 C25.1698768,31.7642994 26.6456787,31.7642994 27.5566667,30.8544444 L30.8544444,27.5566667 C31.7642994,26.6456787 31.7642994,25.1698768 30.8544444,24.2588889 L29.1822222,22.5555556 C29.2962963,22.3014815 29.4051852,22.0422222 29.5088889,21.7777778 L31.92,21.7777778 C33.2086644,21.7777778 34.2533333,20.7331089 34.2533333,19.4444444 L34.2533333,14.7777778 C34.2533471,14.1562347 34.0053803,13.5603726 33.5644253,13.1223378 C33.1234703,12.684303 32.5259737,12.4403008 31.9044444,12.4444444 Z M31.9044444,19.4444444 L27.7588889,19.4444444 C27.4826506,20.6994942 26.9848617,21.8952411 26.2888889,22.9755556 L29.2211111,25.9077778 L25.9233333,29.2055556 L22.96,26.2733333 C21.8796855,26.9693062 20.6839387,27.4670951 19.4288889,27.7433333 L19.4288889,31.8888889 L14.7622222,31.8888889 L14.7622222,27.7433333 C13.5071724,27.4670951 12.3114256,26.9693062 11.2311111,26.2733333 L8.29888889,29.2055556 L5.00111111,25.9077778 L7.93333333,22.9755556 C7.23736048,21.8952411 6.73957159,20.6994942 6.46333333,19.4444444 L2.34888889,19.4444444 L2.34888889,14.7777778 L6.49444444,14.7777778 C6.77068271,13.522728 7.26847159,12.3269811 7.96444444,11.2466667 L5.03222222,8.31444444 L8.33,5.01666667 L11.2622222,7.94888889 C12.3425367,7.25291604 13.5382835,6.75512715 14.7933333,6.47888889 L14.7933333,2.33333333 L19.46,2.33333333 L19.46,6.47888889 C20.7150498,6.75512715 21.9107966,7.25291604 22.9911111,7.94888889 L25.9233333,5.01666667 L29.2211111,8.31444444 L26.2888889,11.2466667 C26.9848617,12.3269811 27.4826506,13.522728 27.7588889,14.7777778 L31.9044444,14.7777778 L31.9044444,19.4444444 Z" id="Shape"></path>
            </g>
        </g>
    </g>
</svg>