<?xml version="1.0" encoding="UTF-8"?>
<svg width="35px" height="33px" viewBox="0 0 35 33" version="1.1" xmlns="http://www.w3.org/2000/svg" xmlns:xlink="http://www.w3.org/1999/xlink">
    <title>User</title>
    <g id="Symbols" stroke="none" stroke-width="1" fill="none" fill-rule="evenodd">
        <g id="Menu" transform="translate(-30.000000, -504.000000)" fill="#C5C5C5">
            <g id="User" transform="translate(30.000000, 504.000000)">
                <path d="M17.2666667,20.3333333 C21.8583333,20.3333333 25.6,15.85 25.6,10.3333333 C25.6,4.81666667 21.8583333,0.333333333 17.2666667,0.333333333 C12.675,0.333333333 8.93333333,4.81666667 8.93333333,10.3333333 C8.93333333,15.85 12.6833333,20.3333333 17.2666667,20.3333333 Z M17.2666667,2.83333333 C20.4916667,2.83333333 23.1,6.16666667 23.1,10.3333333 C23.1,14.5 20.4916667,17.8333333 17.2666667,17.8333333 C14.0416667,17.8333333 11.4333333,14.5 11.4333333,10.3333333 C11.4333333,6.16666667 14.0416667,2.83333333 17.2666667,2.83333333 Z" id="Shape"></path>
                <path d="M24.8916667,19.5 C24.2013108,19.4309645 23.5857024,19.9346441 23.5166668,20.625 C23.4476312,21.3153559 23.9513108,21.9309643 24.6416667,22 C28.5183514,22.4555347 31.52178,25.6059844 31.7916667,29.5 L2.74166667,29.5 C3.03706498,25.6172867 6.02748963,22.4804776 9.89166667,22 C10.5820226,21.9309644 11.0857023,21.3153559 11.0166667,20.625 C10.9476311,19.9346441 10.3320226,19.4309644 9.64166667,19.5 C9.55,19.5 0.183333333,20.5666667 0.183333333,30.7416667 C0.183333333,31.4320226 0.742977396,31.9916667 1.43333333,31.9916667 L33.1,31.9916667 C33.7903559,31.9916667 34.35,31.4320226 34.35,30.7416667 C34.35,20.5666667 24.9833333,19.5 24.8916667,19.5 Z" id="Shape"></path>
            </g>
        </g>
    </g>
</svg>